<svg xmlns="http://www.w3.org/2000/svg" viewBox="0 0 1631.5 1184.68" width="1631.5" height="1184.68" style="background-color: transparent;"><defs><style>@import url('https://fonts.googleapis.com/css2?family=Caveat+Brush&amp;family=Source+Code+Pro&amp;family=Source+Sans+Pro&amp;family=Crimson+Pro&amp;display=block');</style></defs><text font-size="19.74736842105264px" font-family="Source Code Pro" font-weight="normal" line-height="19.74736842105264px" letter-spacing="-0.03em" text-align="left" dominant-baseline="mathematical" alignment-baseline="mathematical" text-anchor="start" fill="#1d1d1d" transform="translate(137.26, 168.94) rotate(0.00, 241.50, 15.00)"><tspan y="9.87368421052632px" x="4">$&gt; git remote add -f RepoA /path/to/repo-a
</tspan></text><g text-align="center" text-anchor="middle" transform="translate(88.66, 99.67) rotate(0.00, 16.33, 18.60)"><g id="3914bf88-e60a-43b8-1c77-de32dadabbd2_svg" class="tl-centered-g"><path d="M2.13,26.95 Q-0.67,22.77 -0.84,19.63 T0.17,12.48 4.48,4.80 12.59,-0.19 22.63,1.05 30.42,9.58 31.99,22.30 26.35,33.29 16.38,37.56 6.84,34.11 1.15,25.89 -0.07,16.96 1.90,10.19 3.46,7.59 3.47,7.60 2.83,10.28 1.96,16.72 3.09,24.75 7.87,32.19 16.00,35.48 24.64,31.98 29.71,22.33 28.55,10.96 22.00,3.30 13.62,2.05 6.82,6.24 3.20,12.90 2.29,19.18 2.25,24.44 Z" fill="#788492" stroke="#788492" stroke-width="2" pointer-events="none" stroke-linecap="round" stroke-linejoin="round"/></g><text font-size="28px" font-family="Caveat Brush" font-weight="normal" line-height="28px" letter-spacing="-0.03em" text-align="center" dominant-baseline="mathematical" alignment-baseline="mathematical" text-anchor="middle" transform="translate(6.833333333333314, -0.400000000000027)" fill="#788492" transform-origin="center center"><tspan y="14px" x="9.5">1
</tspan></text></g><text font-size="19.74736842105264px" font-family="Source Code Pro" font-weight="normal" line-height="19.74736842105264px" letter-spacing="-0.03em" text-align="left" dominant-baseline="mathematical" alignment-baseline="mathematical" text-anchor="start" fill="#1d1d1d" transform="translate(135.39, 110.53) rotate(0.00, 117.50, 15.00)"><tspan y="9.87368421052632px" x="4">$&gt; git clone my-repo
</tspan></text><text font-size="28px" font-family="Caveat Brush" font-weight="normal" line-height="28px" letter-spacing="-0.03em" text-align="left" dominant-baseline="mathematical" alignment-baseline="mathematical" text-anchor="start" fill="#4263eb" transform="translate(143.16, 226.01) rotate(0.00, 40.00, 19.00)"><tspan y="14px" x="4">myRepo
</tspan></text><text font-size="19.74736842105264px" font-family="Source Code Pro" font-weight="normal" line-height="19.74736842105264px" letter-spacing="-0.03em" text-align="left" dominant-baseline="mathematical" alignment-baseline="mathematical" text-anchor="start" fill="#4263eb" transform="translate(159.93, 361.46) rotate(0.00, 325.50, 15.00)"><tspan y="9.87368421052632px" x="4">$&gt; myRepoLastCommit=$(git log main --format=%H | head -1)
</tspan></text><text font-size="28px" font-family="Caveat Brush" font-weight="normal" line-height="28px" letter-spacing="-0.03em" text-align="left" dominant-baseline="mathematical" alignment-baseline="mathematical" text-anchor="start" fill="#4263eb" transform="translate(149.97, 313.85) rotate(0.00, 100.50, 19.00)"><tspan y="14px" x="4">myRepo's last commit
</tspan></text><text font-size="19.74736842105264px" font-family="Source Code Pro" font-weight="normal" line-height="19.74736842105264px" letter-spacing="-0.03em" text-align="left" dominant-baseline="mathematical" alignment-baseline="mathematical" text-anchor="start" fill="#4263eb" transform="translate(141.97, 259.18) rotate(0.00, 145.50, 15.00)"><tspan y="9.87368421052632px" x="4">juliusgb/graft-css-for-js
</tspan></text><text font-size="28px" font-family="Caveat Brush" font-weight="normal" line-height="28px" letter-spacing="-0.03em" text-align="left" dominant-baseline="mathematical" alignment-baseline="mathematical" text-anchor="start" fill="#ff9433" transform="translate(135.16, 511.27) rotate(0.00, 33.00, 19.00)"><tspan y="14px" x="4">RepoA
</tspan></text><text font-size="19.74736842105264px" font-family="Source Code Pro" font-weight="normal" line-height="19.74736842105264px" letter-spacing="-0.03em" text-align="left" dominant-baseline="mathematical" alignment-baseline="mathematical" text-anchor="start" fill="#7746f1" transform="translate(143.84, 659.40) rotate(0.00, 371.00, 15.00)"><tspan y="9.87368421052632px" x="4">$&gt; repoAInitialCommit=$(git log RepoA/main --format=%H | tail -1)
</tspan></text><g id="0f059ebd-21cc-474f-1b37-d3ede9dc7c8a_svg" class="tl-centered-g" transform="translate(806.45, 322.19) rotate(0.00, 10.00, 14.00)"><ellipse cx="10" cy="14" rx="7.88" ry="11.88" fill="none" stroke="#788492" stroke-width="4.23" stroke-dasharray="none" stroke-dashoffset="none" pointer-events="none" stroke-linecap="round" stroke-linejoin="round"/></g><g id="033d300a-1f0f-4bc2-18ff-319844e5b820_svg" class="tl-centered-g" transform="translate(873.45, 320.19) rotate(0.00, 10.00, 14.00)"><ellipse cx="10" cy="14" rx="7.88" ry="11.88" fill="none" stroke="#788492" stroke-width="4.23" stroke-dasharray="none" stroke-dashoffset="none" pointer-events="none" stroke-linecap="round" stroke-linejoin="round"/></g><g id="8e711c64-7412-42dc-09a0-dc0d84c5b24a_svg" class="tl-centered-g" transform="translate(931.95, 321.19) rotate(0.00, 10.00, 14.00)"><ellipse cx="10" cy="14" rx="7.88" ry="11.88" fill="none" stroke="#4263eb" stroke-width="4.23" stroke-dasharray="none" stroke-dashoffset="none" pointer-events="none" stroke-linecap="round" stroke-linejoin="round"/></g><g id="3f5e6e05-5c5a-416e-131f-30eb43d428f5_svg" class="tl-centered-g" transform="translate(836.87, 619.86) rotate(0.00, 10.00, 14.00)"><ellipse cx="10" cy="14" rx="7.88" ry="11.88" fill="none" stroke="#7746f1" stroke-width="4.23" stroke-dasharray="none" stroke-dashoffset="none" pointer-events="none" stroke-linecap="round" stroke-linejoin="round"/></g><g id="e27a546a-5f10-4bc4-0a65-0acfee38ab8e_svg" class="tl-centered-g" transform="translate(903.87, 617.86) rotate(0.00, 10.00, 14.00)"><ellipse cx="10" cy="14" rx="7.88" ry="11.88" fill="none" stroke="#ff9433" stroke-width="4.23" stroke-dasharray="none" stroke-dashoffset="none" pointer-events="none" stroke-linecap="round" stroke-linejoin="round"/></g><g id="c83473bd-6b7a-4285-134f-dcb53f5e294b_svg" class="tl-centered-g" transform="translate(826.45, 334.73) rotate(0.00, 19.50, 0.58)"><defs><mask id="c83473bd-6b7a-4285-134f-dcb53f5e294b_clip"><rect x="-100" y="-100" width="239.01" height="201.16" fill="white"/><rect x="19.50" y="0.58" width="0" height="0" rx="2" ry="2" fill="black" opacity="1"/></mask></defs><g pointer-events="none" opacity="1" mask=""><path d="M0,1.16L39.01,0" fill="#788492" stroke="#788492" stroke-width="4.23" stroke-dasharray="none" stroke-dashoffset="none" stroke-linecap="round" stroke-linejoin="round" pointer-events="stroke"/><g><path d="M 27.55,-6.166803510536681 L 39.01,0 27.94,6.836529822796647" fill="none" stroke="#788492" stroke-width="4.23" stroke-linecap="round" stroke-linejoin="round" pointer-events="none"/></g></g></g><g id="354beb42-8a0e-4bbd-14f6-e338acdec427_svg" class="tl-centered-g" transform="translate(856.87, 632.40) rotate(0.00, 19.50, 0.58)"><defs><mask id="354beb42-8a0e-4bbd-14f6-e338acdec427_clip"><rect x="-100" y="-100" width="239.01" height="201.16" fill="white"/><rect x="19.50" y="0.58" width="0" height="0" rx="2" ry="2" fill="black" opacity="1"/></mask></defs><g pointer-events="none" opacity="1" mask=""><path d="M0,1.16L39.01,0" fill="#ff9433" stroke="#ff9433" stroke-width="4.23" stroke-dasharray="none" stroke-dashoffset="none" stroke-linecap="round" stroke-linejoin="round" pointer-events="stroke"/><g><path d="M 27.55,-6.166803510536681 L 39.01,0 27.94,6.836529822796647" fill="none" stroke="#ff9433" stroke-width="4.23" stroke-linecap="round" stroke-linejoin="round" pointer-events="none"/></g></g></g><g id="0aeff388-c022-4917-0b1e-585c862072da_svg" class="tl-centered-g" transform="translate(962.37, 618.86) rotate(0.00, 10.00, 14.00)"><ellipse cx="10" cy="14" rx="7.88" ry="11.88" fill="none" stroke="#ff9433" stroke-width="4.23" stroke-dasharray="none" stroke-dashoffset="none" pointer-events="none" stroke-linecap="round" stroke-linejoin="round"/></g><g id="799dcb5c-2bec-4850-25d5-abeba75dfe93_svg" class="tl-centered-g" transform="translate(1026.37, 618.86) rotate(0.00, 10.00, 14.00)"><ellipse cx="10" cy="14" rx="7.88" ry="11.88" fill="none" stroke="#ff9433" stroke-width="4.23" stroke-dasharray="none" stroke-dashoffset="none" pointer-events="none" stroke-linecap="round" stroke-linejoin="round"/></g><g id="aacf98ed-7f66-42d3-0a74-fc57924e06d0_svg" class="tl-centered-g" transform="translate(893.10, 334.88) rotate(0.00, 15.43, 0.50)"><defs><mask id="aacf98ed-7f66-42d3-0a74-fc57924e06d0_clip"><rect x="-100" y="-100" width="230.85" height="201" fill="white"/><rect x="15.42" y="0.09" width="0" height="0" rx="2" ry="2" fill="black" opacity="1"/></mask></defs><g pointer-events="none" opacity="1" mask=""><path d="M0,0L30.85,0.2" fill="#788492" stroke="#788492" stroke-width="4.23" stroke-dasharray="none" stroke-dashoffset="none" stroke-linecap="round" stroke-linejoin="round" pointer-events="stroke"/><g><path d="M 21.97,-4.999401693585629 L 30.85,0.2 21.91,5.2839316397477045" fill="none" stroke="#788492" stroke-width="4.23" stroke-linecap="round" stroke-linejoin="round" pointer-events="none"/></g></g></g><g id="3afd7dc7-9186-4989-05c1-a7642b36498f_svg" class="tl-centered-g" transform="translate(982.37, 632.86) rotate(0.00, 18.00, 0.50)"><defs><mask id="3afd7dc7-9186-4989-05c1-a7642b36498f_clip"><rect x="-100" y="-100" width="236" height="201" fill="white"/><rect x="18" y="0" width="0" height="0" rx="2" ry="2" fill="black" opacity="1"/></mask></defs><g pointer-events="none" opacity="1" mask=""><path d="M0,0L36,0" fill="#ff9433" stroke="#ff9433" stroke-width="4.23" stroke-dasharray="none" stroke-dashoffset="none" stroke-linecap="round" stroke-linejoin="round" pointer-events="stroke"/><g><path d="M 25.60,-5.999999999999999 L 36,0 25.60,5.999999999999999" fill="none" stroke="#ff9433" stroke-width="4.23" stroke-linecap="round" stroke-linejoin="round" pointer-events="none"/></g></g></g><g id="85f23b08-93da-465a-038a-4cc5f2d81344_svg" class="tl-centered-g" transform="translate(923.52, 632.55) rotate(0.00, 15.43, 0.50)"><defs><mask id="85f23b08-93da-465a-038a-4cc5f2d81344_clip"><rect x="-100" y="-100" width="230.85" height="201" fill="white"/><rect x="15.42" y="0.09" width="0" height="0" rx="2" ry="2" fill="black" opacity="1"/></mask></defs><g pointer-events="none" opacity="1" mask=""><path d="M0,0L30.85,0.2" fill="#ff9433" stroke="#ff9433" stroke-width="4.23" stroke-dasharray="none" stroke-dashoffset="none" stroke-linecap="round" stroke-linejoin="round" pointer-events="stroke"/><g><path d="M 21.97,-4.999401693585629 L 30.85,0.2 21.91,5.2839316397477045" fill="none" stroke="#ff9433" stroke-width="4.23" stroke-linecap="round" stroke-linejoin="round" pointer-events="none"/></g></g></g><text font-size="28px" font-family="Caveat Brush" font-weight="normal" line-height="28px" letter-spacing="-0.03em" text-align="left" dominant-baseline="mathematical" alignment-baseline="mathematical" text-anchor="start" fill="#7746f1" transform="translate(147.16, 615.26) rotate(0.00, 96.50, 19.00)"><tspan y="14px" x="4">RepoA's first commit
</tspan></text><text font-size="19.74736842105264px" font-family="Source Code Pro" font-weight="normal" line-height="19.74736842105264px" letter-spacing="-0.03em" text-align="left" dominant-baseline="mathematical" alignment-baseline="mathematical" text-anchor="start" fill="#ff9433" transform="translate(133.97, 547.18) rotate(0.00, 89.50, 15.00)"><tspan y="9.87368421052632px" x="4">juliusgb/repo-A
</tspan></text><g id="2539150b-45d3-4452-1aa8-05f1c291a7f2_svg" class="tl-centered-g" transform="translate(853.40, 351.52) rotate(0.00, 41.70, 130.92)"><defs><mask id="2539150b-45d3-4452-1aa8-05f1c291a7f2_clip"><rect x="-100" y="-100" width="283.39" height="461.84" fill="white"/><rect x="41.69" y="130.92" width="0" height="0" rx="4" ry="4" fill="black" opacity="1"/></mask></defs><g pointer-events="none" opacity="1" mask=""><path d="M83.39,0L0,261.84" fill="#0e98ad" stroke="#0e98ad" stroke-width="4.23" stroke-dasharray="6.47 7.65" stroke-dashoffset="0" stroke-linecap="round" stroke-linejoin="round" pointer-events="stroke"/><g><path d="M 11.82,251.06467127249292 L 0,261.84 -3.4179048388523627,246.2093273813137" fill="none" stroke="#0e98ad" stroke-width="4.23" stroke-linecap="round" stroke-linejoin="round" pointer-events="none"/></g></g></g><g text-align="center" text-anchor="middle" transform="translate(907.33, 476.13) rotate(0.00, 17.00, 22.60)"><g id="3d9f2b3f-958b-4dbb-281f-c660625dd93a_svg" class="tl-centered-g"><path d="M0.21,27.22 Q-1.60,21.73 -1.09,18.23 T1.43,10.64 7.43,3.41 16.83,0.25 27.00,4.48 33.54,16.13 33.01,30.79 25.32,41.79 14.19,44.34 4.67,38.39 -0.19,27.96 -0.36,17.64 2.50,10.26 4.42,7.53 4.43,7.54 3.40,10.44 1.68,17.63 1.89,27.12 6.03,36.69 14.23,42.26 23.90,40.27 30.78,30.47 31.45,17.12 25.87,6.48 17.24,2.55 9.30,5.18 4.13,11.55 1.85,18.39 0.78,24.39 Z" fill="#0e98ad" stroke="#0e98ad" stroke-width="2" pointer-events="none" stroke-linecap="round" stroke-linejoin="round"/></g><text font-size="28px" font-family="Caveat Brush" font-weight="normal" line-height="28px" letter-spacing="-0.03em" text-align="center" dominant-baseline="mathematical" alignment-baseline="mathematical" text-anchor="middle" transform="translate(6.499999999999972, 3.59)" fill="#0e98ad" transform-origin="center center"><tspan y="14px" x="10.5">5
</tspan></text></g><text font-size="28px" font-family="Caveat Brush" font-weight="normal" line-height="28px" letter-spacing="-0.03em" text-align="left" dominant-baseline="mathematical" alignment-baseline="mathematical" text-anchor="start" fill="#0e98ad" transform="translate(953.83, 472.67) rotate(0.00, 108.00, 33.00)"><tspan y="14px" x="4">Change parent 
</tspan><tspan y="42px" x="4">
of RepoA's first commit
</tspan></text><text font-size="19.74736842105264px" font-family="Source Code Pro" font-weight="normal" line-height="19.74736842105264px" letter-spacing="-0.03em" text-align="left" dominant-baseline="mathematical" alignment-baseline="mathematical" text-anchor="start" fill="#36b24d" transform="translate(930.50, 550.07) rotate(0.00, 342.50, 15.00)"><tspan y="9.87368421052632px" x="4">$&gt; git replace --graft $repoAInitialCommit $myRepoLastCommit
</tspan></text><text font-size="28px" font-family="Caveat Brush" font-weight="normal" line-height="28px" letter-spacing="-0.03em" text-align="left" dominant-baseline="mathematical" alignment-baseline="mathematical" text-anchor="start" fill="#0e98ad" transform="translate(965.83, 308.67) rotate(0.00, 144.50, 33.00)"><tspan y="14px" x="4">graft commit has same content
</tspan><tspan y="42px" x="4">
as myRepo's last commit
</tspan></text><text font-size="48px" font-family="Caveat Brush" font-weight="normal" line-height="48px" letter-spacing="-0.03em" text-align="left" dominant-baseline="mathematical" alignment-baseline="mathematical" text-anchor="start" fill="#1d1d1d" transform="translate(16.00, 16.00) rotate(0.00, 149.50, 29.00)"><tspan y="24px" x="4">Grafting first repo
</tspan></text><g text-align="center" text-anchor="middle" transform="translate(88.66, 165.00) rotate(0.00, 16.33, 18.60)"><g id="ef1e3dc4-489a-4baf-129d-71c9e26d0d8d_svg" class="tl-centered-g"><path d="M27.11,4.21 Q33.75,10.13 34.65,13.57 T34.91,21.24 31.43,29.42 23.70,35.51 13.33,36.69 3.74,31.81 -1.48,22.38 -0.71,11.95 5.02,4.00 12.98,0.25 20.46,0.41 25.74,3.00 27.68,4.67 27.68,4.68 25.53,3.81 20.42,2.34 13.79,2.33 6.70,5.46 1.47,12.33 0.56,21.51 4.97,29.92 13.29,34.40 22.38,33.54 29.19,28.35 32.27,21.28 32.11,14.76 29.24,8.06 Z" fill="#788492" stroke="#788492" stroke-width="2" pointer-events="none" stroke-linecap="round" stroke-linejoin="round"/></g><text font-size="28px" font-family="Caveat Brush" font-weight="normal" line-height="28px" letter-spacing="-0.03em" text-align="center" dominant-baseline="mathematical" alignment-baseline="mathematical" text-anchor="middle" transform="translate(5.833333333333314, -0.400000000000027)" fill="#788492" transform-origin="center center"><tspan y="14px" x="10.5">2
</tspan></text></g><g text-align="center" text-anchor="middle" transform="translate(87.33, 229.00) rotate(0.00, 16.33, 18.60)"><g id="f0c3e995-e69f-422f-3b71-1547e7e7bc78_svg" class="tl-centered-g"><path d="M2.15,12.65 Q5.81,4.70 8.73,3.01 T15.63,1.16 23.62,3.33 29.99,10.42 31.66,20.81 27.25,30.53 18.36,35.38 8.87,33.52 2.46,26.53 0.54,17.84 2.33,10.49 6.00,5.99 8.05,4.56 8.05,4.57 6.77,6.40 4.24,10.98 2.75,17.52 4.21,25.20 9.58,31.49 17.69,33.37 25.43,29.37 29.44,20.94 28.19,11.79 22.85,5.52 16.13,3.53 10.38,4.95 5.07,9.47 Z" fill="#788492" stroke="#788492" stroke-width="2" pointer-events="none" stroke-linecap="round" stroke-linejoin="round"/></g><text font-size="28px" font-family="Caveat Brush" font-weight="normal" line-height="28px" letter-spacing="-0.03em" text-align="center" dominant-baseline="mathematical" alignment-baseline="mathematical" text-anchor="middle" transform="translate(5.833333333333314, -0.400000000000027)" fill="#788492" transform-origin="center center"><tspan y="14px" x="10.5">3
</tspan></text></g><g text-align="center" text-anchor="middle" transform="translate(91.33, 514.33) rotate(0.00, 16.33, 18.60)"><g id="2aa3e69e-00c9-4de3-085b-2e4115cd2544_svg" class="tl-centered-g"><path d="M5.11,31.06 Q1.78,28.29 0.78,25.73 T-0.27,19.37 1.23,11.32 6.37,3.80 14.93,0.05 24.35,2.70 30.80,11.53 31.55,23.08 26.58,32.67 18.39,37.10 10.27,36.03 4.55,31.41 1.98,25.86 1.49,23.17 1.50,23.17 2.71,25.33 5.84,29.87 10.80,33.87 17.65,35.04 24.75,31.40 29.26,23.02 28.82,12.73 23.43,4.84 15.58,2.36 8.42,5.43 4.07,11.88 2.88,18.87 3.59,24.50 4.65,28.94 Z" fill="#788492" stroke="#788492" stroke-width="2" pointer-events="none" stroke-linecap="round" stroke-linejoin="round"/></g><text font-size="28px" font-family="Caveat Brush" font-weight="normal" line-height="28px" letter-spacing="-0.03em" text-align="center" dominant-baseline="mathematical" alignment-baseline="mathematical" text-anchor="middle" transform="translate(5.333333333333314, -0.400000000000027)" fill="#788492" transform-origin="center center"><tspan y="14px" x="11">4
</tspan></text></g><g text-align="center" text-anchor="middle" transform="translate(83.32, 994.33) rotate(0.00, 16.33, 18.60)"><g id="4b2f7921-77f2-458e-3f81-5855eb649c21_svg" class="tl-centered-g"><path d="M12.86,0.78 Q17.19,-0.93 20.07,-0.38 T26.20,2.58 31.70,9.54 33.51,19.96 29.13,30.65 19.00,36.52 7.44,33.93 0.27,23.87 0.75,11.57 7.69,2.72 17.10,-0.01 25.14,2.44 29.80,7.37 31.16,10.08 31.15,10.08 29.26,8.13 24.46,4.33 17.44,2.15 9.18,4.30 2.89,11.96 2.21,22.88 8.30,31.94 18.27,34.45 27.10,29.49 31.00,20.23 29.53,11.16 24.87,5.21 19.74,2.48 15.12,1.28 Z" fill="#788492" stroke="#788492" stroke-width="2" pointer-events="none" stroke-linecap="round" stroke-linejoin="round"/></g><text font-size="28px" font-family="Caveat Brush" font-weight="normal" line-height="28px" letter-spacing="-0.03em" text-align="center" dominant-baseline="mathematical" alignment-baseline="mathematical" text-anchor="middle" transform="translate(6.333333333333314, -0.400000000000027)" fill="#788492" transform-origin="center center"><tspan y="14px" x="10">7
</tspan></text></g><text font-size="28px" font-family="Caveat Brush" font-weight="normal" line-height="28px" letter-spacing="-0.03em" text-align="left" dominant-baseline="mathematical" alignment-baseline="mathematical" text-anchor="start" fill="#1d1d1d" transform="translate(128.49, 991.35) rotate(0.00, 47.50, 19.00)"><tspan y="14px" x="4">Workflow
</tspan></text><text font-size="19.74736842105264px" font-family="Source Code Pro" font-weight="normal" line-height="19.74736842105264px" letter-spacing="-0.03em" text-align="left" dominant-baseline="mathematical" alignment-baseline="mathematical" text-anchor="start" fill="#4263eb" transform="translate(134.59, 1033.46) rotate(0.00, 224.50, 25.00)"><tspan y="9.87368421052632px" x="4">- Create folder structure.
</tspan><tspan y="29.621052631578962px" x="4">
- Make changes, commit, push to MyRepo.
</tspan></text><g id="4ae9454d-8fdf-42b1-1779-2427efe1fc44_svg" class="tl-centered-g" transform="translate(774.45, 1100.87) rotate(0.00, 10.00, 14.00)"><ellipse cx="10" cy="14" rx="7.88" ry="11.88" fill="none" stroke="#788492" stroke-width="4.23" stroke-dasharray="none" stroke-dashoffset="none" pointer-events="none" stroke-linecap="round" stroke-linejoin="round"/></g><g id="da8969f0-69a4-4d13-2f64-73e6f31e70f6_svg" class="tl-centered-g" transform="translate(841.45, 1098.87) rotate(0.00, 10.00, 14.00)"><ellipse cx="10" cy="14" rx="7.88" ry="11.88" fill="none" stroke="#788492" stroke-width="4.23" stroke-dasharray="none" stroke-dashoffset="none" pointer-events="none" stroke-linecap="round" stroke-linejoin="round"/></g><g id="3f404a57-9f15-476d-2dad-ccdc92d988d4_svg" class="tl-centered-g" transform="translate(794.45, 1113.41) rotate(0.00, 19.50, 0.58)"><defs><mask id="3f404a57-9f15-476d-2dad-ccdc92d988d4_clip"><rect x="-100" y="-100" width="239.01" height="201.16" fill="white"/><rect x="19.50" y="0.58" width="0" height="0" rx="2" ry="2" fill="black" opacity="1"/></mask></defs><g pointer-events="none" opacity="1" mask=""><path d="M0,1.16L39.01,0" fill="#788492" stroke="#788492" stroke-width="4.23" stroke-dasharray="none" stroke-dashoffset="none" stroke-linecap="round" stroke-linejoin="round" pointer-events="stroke"/><g><path d="M 27.55,-6.166803510536681 L 39.01,0 27.94,6.836529822796647" fill="none" stroke="#788492" stroke-width="4.23" stroke-linecap="round" stroke-linejoin="round" pointer-events="none"/></g></g></g><g id="be12cef1-8721-4de3-1984-85ab5f159715_svg" class="tl-centered-g" transform="translate(904.87, 1098.54) rotate(0.00, 10.00, 14.00)"><ellipse cx="10" cy="14" rx="7.88" ry="11.88" fill="none" stroke="#36b24d" stroke-width="4.23" stroke-dasharray="none" stroke-dashoffset="none" pointer-events="none" stroke-linecap="round" stroke-linejoin="round"/></g><g id="ab1d3e5f-1cb2-4f4a-24da-42fb42903e8a_svg" class="tl-centered-g" transform="translate(966.54, 1096.54) rotate(0.00, 10.00, 14.00)"><ellipse cx="10" cy="14" rx="7.88" ry="11.88" fill="none" stroke="#ff9433" stroke-width="4.23" stroke-dasharray="none" stroke-dashoffset="none" pointer-events="none" stroke-linecap="round" stroke-linejoin="round"/></g><g id="a5ec55fa-a771-43b5-06af-5d5879ba8af9_svg" class="tl-centered-g" transform="translate(924.87, 1111.12) rotate(0.00, 16.84, 0.55)"><defs><mask id="a5ec55fa-a771-43b5-06af-5d5879ba8af9_clip"><rect x="-100" y="-100" width="233.68" height="201.1" fill="white"/><rect x="16.84" y="0.55" width="0" height="0" rx="2" ry="2" fill="black" opacity="1"/></mask></defs><g pointer-events="none" opacity="1" mask=""><path d="M0,1.1L33.68,0" fill="#36b24d" stroke="#36b24d" stroke-width="4.23" stroke-dasharray="none" stroke-dashoffset="none" stroke-linecap="round" stroke-linejoin="round" pointer-events="stroke"/><g><path d="M 23.77,-5.295790685279038 L 33.68,0 24.14,5.930875981387627" fill="none" stroke="#36b24d" stroke-width="4.23" stroke-linecap="round" stroke-linejoin="round" pointer-events="none"/></g></g></g><g id="c3bfb35c-01d3-40fa-2687-103975a4b240_svg" class="tl-centered-g" transform="translate(1025.04, 1097.54) rotate(0.00, 10.00, 14.00)"><ellipse cx="10" cy="14" rx="7.88" ry="11.88" fill="none" stroke="#ff9433" stroke-width="4.23" stroke-dasharray="none" stroke-dashoffset="none" pointer-events="none" stroke-linecap="round" stroke-linejoin="round"/></g><g id="18627b3b-d7e9-4951-0f82-12e92fe06465_svg" class="tl-centered-g" transform="translate(1089.04, 1097.54) rotate(0.00, 10.00, 14.00)"><ellipse cx="10" cy="14" rx="7.88" ry="11.88" fill="none" stroke="#ff9433" stroke-width="4.23" stroke-dasharray="none" stroke-dashoffset="none" pointer-events="none" stroke-linecap="round" stroke-linejoin="round"/></g><g id="e3d04465-90cc-48d6-3d6c-7f1d4d6107af_svg" class="tl-centered-g" transform="translate(1045.04, 1111.54) rotate(0.00, 18.00, 0.50)"><defs><mask id="e3d04465-90cc-48d6-3d6c-7f1d4d6107af_clip"><rect x="-100" y="-100" width="236" height="201" fill="white"/><rect x="18" y="0" width="0" height="0" rx="2" ry="2" fill="black" opacity="1"/></mask></defs><g pointer-events="none" opacity="1" mask=""><path d="M0,0L36,0" fill="#ff9433" stroke="#ff9433" stroke-width="4.23" stroke-dasharray="none" stroke-dashoffset="none" stroke-linecap="round" stroke-linejoin="round" pointer-events="stroke"/><g><path d="M 25.60,-5.999999999999999 L 36,0 25.60,5.999999999999999" fill="none" stroke="#ff9433" stroke-width="4.23" stroke-linecap="round" stroke-linejoin="round" pointer-events="none"/></g></g></g><g id="be736d93-d920-4641-1b12-dbb61fe80d8a_svg" class="tl-centered-g" transform="translate(986.19, 1111.23) rotate(0.00, 15.43, 0.50)"><defs><mask id="be736d93-d920-4641-1b12-dbb61fe80d8a_clip"><rect x="-100" y="-100" width="230.85" height="201" fill="white"/><rect x="15.42" y="0.09" width="0" height="0" rx="2" ry="2" fill="black" opacity="1"/></mask></defs><g pointer-events="none" opacity="1" mask=""><path d="M0,0L30.85,0.2" fill="#ff9433" stroke="#ff9433" stroke-width="4.23" stroke-dasharray="none" stroke-dashoffset="none" stroke-linecap="round" stroke-linejoin="round" pointer-events="stroke"/><g><path d="M 21.97,-4.999401693585629 L 30.85,0.2 21.91,5.2839316397477045" fill="none" stroke="#ff9433" stroke-width="4.23" stroke-linecap="round" stroke-linejoin="round" pointer-events="none"/></g></g></g><g id="19a390ac-cb49-4369-0cac-18dfdea8b1cd_svg" class="tl-centered-g" transform="translate(861.45, 1112.63) rotate(0.00, 17.71, 0.50)"><defs><mask id="19a390ac-cb49-4369-0cac-18dfdea8b1cd_clip"><rect x="-100" y="-100" width="235.42" height="201" fill="white"/><rect x="17.71" y="0.09" width="0" height="0" rx="2" ry="2" fill="black" opacity="1"/></mask></defs><g pointer-events="none" opacity="1" mask=""><path d="M-0.00,-0.67 Q8.35,-0.64 12.53,-0.63 T20.88,-0.62 29.24,-0.63 33.52,-0.62 33.71,-0.55 33.88,-0.43 33.99,-0.26 34.05,-0.06 34.04,0.14 33.97,0.34 33.83,0.49 33.66,0.60 33.46,0.64 33.25,0.62 33.07,0.54 32.92,0.40 32.82,0.22 32.79,0.01 32.82,-0.19 32.91,-0.37 33.06,-0.51 33.25,-0.60 33.45,-0.62 33.65,-0.58 33.83,-0.48 33.96,-0.32 34.04,-0.13 34.05,0.08 34.00,0.27 33.88,0.44 33.72,0.57 33.53,0.64 33.42,0.65 29.25,0.69 20.89,0.78 12.54,0.88 4.18,0.99 -0.10,1.04 -0.30,0.99 -0.48,0.90 -0.64,0.76 -0.76,0.59 -0.83,0.40 -0.86,0.19 -0.83,-0.01 -0.76,-0.20 -0.65,-0.38 -0.49,-0.51 -0.31,-0.61 -0.11,-0.66 Z" fill="#788492" stroke="#788492" stroke-width="2.11" stroke-dasharray="none" stroke-dashoffset="none" stroke-linecap="round" stroke-linejoin="round" pointer-events="stroke"/><g><path d="M 25.16,-5.8484850577603185 L 35.42,0 25.22,5.958181608906348" fill="none" stroke="#788492" stroke-width="4.23" stroke-linecap="round" stroke-linejoin="round" pointer-events="none"/></g></g></g><g id="8821cf3a-9c55-4067-088d-0452104216e0_svg" class="tl-centered-g" transform="translate(1142.45, 1096.87) rotate(0.00, 10.00, 14.00)"><ellipse cx="10" cy="14" rx="7.88" ry="11.88" fill="none" stroke="#1d1d1d" stroke-width="4.23" stroke-dasharray="none" stroke-dashoffset="none" pointer-events="none" stroke-linecap="round" stroke-linejoin="round"/></g><g id="e12b457a-082c-4863-1080-413f273d2444_svg" class="tl-centered-g" transform="translate(1209.45, 1094.87) rotate(0.00, 10.00, 14.00)"><ellipse cx="10" cy="14" rx="7.88" ry="11.88" fill="none" stroke="#1d1d1d" stroke-width="4.23" stroke-dasharray="none" stroke-dashoffset="none" pointer-events="none" stroke-linecap="round" stroke-linejoin="round"/></g><g id="9ad76b15-d343-4878-2da7-eb2bf36e7bb7_svg" class="tl-centered-g" transform="translate(1162.45, 1109.41) rotate(0.00, 19.50, 0.58)"><defs><mask id="9ad76b15-d343-4878-2da7-eb2bf36e7bb7_clip"><rect x="-100" y="-100" width="239.01" height="201.16" fill="white"/><rect x="19.50" y="0.58" width="0" height="0" rx="2" ry="2" fill="black" opacity="1"/></mask></defs><g pointer-events="none" opacity="1" mask=""><path d="M0,1.16L39.01,0" fill="#1d1d1d" stroke="#1d1d1d" stroke-width="4.23" stroke-dasharray="none" stroke-dashoffset="none" stroke-linecap="round" stroke-linejoin="round" pointer-events="stroke"/><g><path d="M 27.55,-6.166803510536681 L 39.01,0 27.94,6.836529822796647" fill="none" stroke="#1d1d1d" stroke-width="4.23" stroke-linecap="round" stroke-linejoin="round" pointer-events="none"/></g></g></g><g id="27facdcc-b166-45b1-3540-d2f653be4715_svg" class="tl-centered-g" transform="translate(1109.04, 1111.10) rotate(0.00, 12.71, 0.50)"><defs><mask id="27facdcc-b166-45b1-3540-d2f653be4715_clip"><rect x="-100" y="-100" width="225.41" height="201" fill="white"/><rect x="12.70" y="0.16" width="0" height="0" rx="2" ry="2" fill="black" opacity="1"/></mask></defs><g pointer-events="none" opacity="1" mask=""><path d="M-0.01,-0.65 Q5.84,-0.65 8.77,-0.66 T14.62,-0.69 20.47,-0.73 23.52,-0.73 23.76,-0.66 23.96,-0.51 24.10,-0.31 24.17,-0.07 24.16,0.18 24.07,0.41 23.91,0.60 23.70,0.73 23.46,0.79 23.21,0.77 22.99,0.66 22.81,0.50 22.69,0.28 22.64,0.03 22.68,-0.21 22.79,-0.43 22.97,-0.60 23.20,-0.71 23.44,-0.74 23.69,-0.69 23.90,-0.57 24.06,-0.38 24.16,-0.15 24.17,0.10 24.11,0.34 23.97,0.54 23.78,0.70 23.54,0.78 23.42,0.80 20.49,0.85 14.64,0.95 8.79,1.07 2.94,1.20 -0.10,1.26 -0.33,1.21 -0.53,1.10 -0.71,0.95 -0.84,0.76 -0.92,0.55 -0.95,0.32 -0.93,0.09 -0.85,-0.12 -0.72,-0.31 -0.55,-0.47 -0.35,-0.58 -0.13,-0.64 Z" fill="#1d1d1d" stroke="#1d1d1d" stroke-width="2.11" stroke-dasharray="none" stroke-dashoffset="none" stroke-linecap="round" stroke-linejoin="round" pointer-events="stroke"/><g><path d="M 18.02,-4.145510708275607 L 25.41,0 18.12,4.32448929172439" fill="none" stroke="#1d1d1d" stroke-width="4.23" stroke-linecap="round" stroke-linejoin="round" pointer-events="none"/></g></g></g><text font-size="28px" font-family="Caveat Brush" font-weight="normal" line-height="28px" letter-spacing="-0.03em" text-align="left" dominant-baseline="mathematical" alignment-baseline="mathematical" text-anchor="start" fill="#1c7ed6" transform="translate(955.83, 1128.69) rotate(0.00, 58.50, 19.00)"><tspan y="14px" x="4">From RepoA
</tspan></text><text font-size="28px" font-family="Caveat Brush" font-weight="normal" line-height="28px" letter-spacing="-0.03em" text-align="left" dominant-baseline="mathematical" alignment-baseline="mathematical" text-anchor="start" fill="#1d1d1d" transform="translate(1147.83, 1130.69) rotate(0.00, 63.00, 19.00)"><tspan y="14px" x="4">New commits
</tspan></text><text font-size="28px" font-family="Caveat Brush" font-weight="normal" line-height="28px" letter-spacing="-0.03em" text-align="left" dominant-baseline="mathematical" alignment-baseline="mathematical" text-anchor="start" fill="#4263eb" transform="translate(743.83, 1059.02) rotate(0.00, 40.00, 19.00)"><tspan y="14px" x="4">myRepo
</tspan></text><g text-align="center" text-anchor="middle" transform="translate(87.33, 787.66) rotate(0.00, 16.33, 18.60)"><g id="f0d6ec8c-0ae4-4099-1a44-cb798d45a876_svg" class="tl-centered-g"><path d="M4.81,7.69 Q10.04,1.18 13.12,0.40 T19.87,0.69 26.69,5.24 30.98,14.09 30.40,24.90 24.46,33.57 15.32,36.39 6.79,32.47 1.88,24.12 1.31,14.99 3.94,7.84 7.93,3.83 10.02,2.65 10.03,2.65 8.64,4.29 5.77,8.53 3.56,14.98 3.88,23.13 7.94,30.63 15.11,34.30 22.90,32.08 28.15,24.58 28.82,15.00 25.26,7.16 19.63,3.16 14.15,2.73 8.25,5.47 Z" fill="#788492" stroke="#788492" stroke-width="2" pointer-events="none" stroke-linecap="round" stroke-linejoin="round"/></g><text font-size="28px" font-family="Caveat Brush" font-weight="normal" line-height="28px" letter-spacing="-0.03em" text-align="center" dominant-baseline="mathematical" alignment-baseline="mathematical" text-anchor="middle" transform="translate(5.333333333333314, -0.400000000000027)" fill="#788492" transform-origin="center center"><tspan y="14px" x="11">6
</tspan></text></g><text font-size="28px" font-family="Caveat Brush" font-weight="normal" line-height="28px" letter-spacing="-0.03em" text-align="left" dominant-baseline="mathematical" alignment-baseline="mathematical" text-anchor="start" fill="#4263eb" transform="translate(135.16, 779.34) rotate(0.00, 40.00, 19.00)"><tspan y="14px" x="4">myRepo
</tspan></text><text font-size="19.74736842105264px" font-family="Source Code Pro" font-weight="normal" line-height="19.74736842105264px" letter-spacing="-0.03em" text-align="left" dominant-baseline="mathematical" alignment-baseline="mathematical" text-anchor="start" fill="#4263eb" transform="translate(133.97, 812.51) rotate(0.00, 145.50, 15.00)"><tspan y="9.87368421052632px" x="4">juliusgb/graft-css-for-js
</tspan></text><text font-size="28px" font-family="Caveat Brush" font-weight="normal" line-height="28px" letter-spacing="-0.03em" text-align="left" dominant-baseline="mathematical" alignment-baseline="mathematical" text-anchor="start" fill="#7746f1" transform="translate(157.82, 855.26) rotate(0.00, 103.00, 19.00)"><tspan y="14px" x="4">push grafts to remote
</tspan></text><text font-size="19.74736842105264px" font-family="Source Code Pro" font-weight="normal" line-height="19.74736842105264px" letter-spacing="-0.03em" text-align="left" dominant-baseline="mathematical" alignment-baseline="mathematical" text-anchor="start" fill="#7746f1" transform="translate(162.51, 899.40) rotate(0.00, 202.00, 15.00)"><tspan y="9.87368421052632px" x="4">$&gt; git push origin 'refs/replace/*'
</tspan></text><g id="74b83f5a-b403-4b28-3046-188b61cacdc8_svg" class="tl-centered-g" transform="translate(774.45, 1100.87) rotate(0.00, 10.00, 14.00)"><ellipse cx="10" cy="14" rx="7.88" ry="11.88" fill="none" stroke="#788492" stroke-width="4.23" stroke-dasharray="none" stroke-dashoffset="none" pointer-events="none" stroke-linecap="round" stroke-linejoin="round"/></g><g id="3cd53994-2309-4ed4-28c3-aa74dac58db2_svg" class="tl-centered-g" transform="translate(841.45, 1098.87) rotate(0.00, 10.00, 14.00)"><ellipse cx="10" cy="14" rx="7.88" ry="11.88" fill="none" stroke="#788492" stroke-width="4.23" stroke-dasharray="none" stroke-dashoffset="none" pointer-events="none" stroke-linecap="round" stroke-linejoin="round"/></g><g id="ebdc0922-d733-44a8-17d4-c776f29fa2e5_svg" class="tl-centered-g" transform="translate(794.45, 1113.41) rotate(0.00, 19.50, 0.58)"><defs><mask id="ebdc0922-d733-44a8-17d4-c776f29fa2e5_clip"><rect x="-100" y="-100" width="239.01" height="201.16" fill="white"/><rect x="19.50" y="0.58" width="0" height="0" rx="2" ry="2" fill="black" opacity="1"/></mask></defs><g pointer-events="none" opacity="1" mask=""><path d="M0,1.16L39.01,0" fill="#788492" stroke="#788492" stroke-width="4.23" stroke-dasharray="none" stroke-dashoffset="none" stroke-linecap="round" stroke-linejoin="round" pointer-events="stroke"/><g><path d="M 27.55,-6.166803510536681 L 39.01,0 27.94,6.836529822796647" fill="none" stroke="#788492" stroke-width="4.23" stroke-linecap="round" stroke-linejoin="round" pointer-events="none"/></g></g></g><g id="a3a35315-e4bd-4531-21c2-94ca3a87a89e_svg" class="tl-centered-g" transform="translate(904.87, 1098.54) rotate(0.00, 10.00, 14.00)"><ellipse cx="10" cy="14" rx="7.88" ry="11.88" fill="none" stroke="#36b24d" stroke-width="4.23" stroke-dasharray="none" stroke-dashoffset="none" pointer-events="none" stroke-linecap="round" stroke-linejoin="round"/></g><g id="f4a5156f-1a98-4162-00a0-6d0aaea29597_svg" class="tl-centered-g" transform="translate(966.54, 1096.54) rotate(0.00, 10.00, 14.00)"><ellipse cx="10" cy="14" rx="7.88" ry="11.88" fill="none" stroke="#ff9433" stroke-width="4.23" stroke-dasharray="none" stroke-dashoffset="none" pointer-events="none" stroke-linecap="round" stroke-linejoin="round"/></g><g id="0bc8632c-ce58-4105-2ca7-43c6a11ae470_svg" class="tl-centered-g" transform="translate(924.87, 1111.12) rotate(0.00, 16.84, 0.55)"><defs><mask id="0bc8632c-ce58-4105-2ca7-43c6a11ae470_clip"><rect x="-100" y="-100" width="233.68" height="201.1" fill="white"/><rect x="16.84" y="0.55" width="0" height="0" rx="2" ry="2" fill="black" opacity="1"/></mask></defs><g pointer-events="none" opacity="1" mask=""><path d="M0,1.1L33.68,0" fill="#36b24d" stroke="#36b24d" stroke-width="4.23" stroke-dasharray="none" stroke-dashoffset="none" stroke-linecap="round" stroke-linejoin="round" pointer-events="stroke"/><g><path d="M 23.77,-5.295790685279038 L 33.68,0 24.14,5.930875981387627" fill="none" stroke="#36b24d" stroke-width="4.23" stroke-linecap="round" stroke-linejoin="round" pointer-events="none"/></g></g></g><g id="d7feee3f-3df3-4700-0970-307b6dd9f72a_svg" class="tl-centered-g" transform="translate(1025.04, 1097.54) rotate(0.00, 10.00, 14.00)"><ellipse cx="10" cy="14" rx="7.88" ry="11.88" fill="none" stroke="#ff9433" stroke-width="4.23" stroke-dasharray="none" stroke-dashoffset="none" pointer-events="none" stroke-linecap="round" stroke-linejoin="round"/></g><g id="2b11e5cc-3be4-4fd7-3ed9-544279701364_svg" class="tl-centered-g" transform="translate(1089.04, 1097.54) rotate(0.00, 10.00, 14.00)"><ellipse cx="10" cy="14" rx="7.88" ry="11.88" fill="none" stroke="#ff9433" stroke-width="4.23" stroke-dasharray="none" stroke-dashoffset="none" pointer-events="none" stroke-linecap="round" stroke-linejoin="round"/></g><g id="98b75774-c1d1-4aa7-2c9b-f02387b94d13_svg" class="tl-centered-g" transform="translate(1045.04, 1111.54) rotate(0.00, 18.00, 0.50)"><defs><mask id="98b75774-c1d1-4aa7-2c9b-f02387b94d13_clip"><rect x="-100" y="-100" width="236" height="201" fill="white"/><rect x="18" y="0" width="0" height="0" rx="2" ry="2" fill="black" opacity="1"/></mask></defs><g pointer-events="none" opacity="1" mask=""><path d="M0,0L36,0" fill="#ff9433" stroke="#ff9433" stroke-width="4.23" stroke-dasharray="none" stroke-dashoffset="none" stroke-linecap="round" stroke-linejoin="round" pointer-events="stroke"/><g><path d="M 25.60,-5.999999999999999 L 36,0 25.60,5.999999999999999" fill="none" stroke="#ff9433" stroke-width="4.23" stroke-linecap="round" stroke-linejoin="round" pointer-events="none"/></g></g></g><g id="ffdf8c32-a919-40a2-1cc1-dedb9cbeb48b_svg" class="tl-centered-g" transform="translate(986.19, 1111.23) rotate(0.00, 15.43, 0.50)"><defs><mask id="ffdf8c32-a919-40a2-1cc1-dedb9cbeb48b_clip"><rect x="-100" y="-100" width="230.85" height="201" fill="white"/><rect x="15.42" y="0.09" width="0" height="0" rx="2" ry="2" fill="black" opacity="1"/></mask></defs><g pointer-events="none" opacity="1" mask=""><path d="M0,0L30.85,0.2" fill="#ff9433" stroke="#ff9433" stroke-width="4.23" stroke-dasharray="none" stroke-dashoffset="none" stroke-linecap="round" stroke-linejoin="round" pointer-events="stroke"/><g><path d="M 21.97,-4.999401693585629 L 30.85,0.2 21.91,5.2839316397477045" fill="none" stroke="#ff9433" stroke-width="4.23" stroke-linecap="round" stroke-linejoin="round" pointer-events="none"/></g></g></g><g id="f46cb0eb-840f-4a6b-273f-992905ad4329_svg" class="tl-centered-g" transform="translate(861.45, 1112.63) rotate(0.00, 17.71, 0.50)"><defs><mask id="f46cb0eb-840f-4a6b-273f-992905ad4329_clip"><rect x="-100" y="-100" width="235.42" height="201" fill="white"/><rect x="17.71" y="0.09" width="0" height="0" rx="2" ry="2" fill="black" opacity="1"/></mask></defs><g pointer-events="none" opacity="1" mask=""><path d="M-0.01,-0.82 Q8.35,-0.81 12.53,-0.81 T20.88,-0.81 29.24,-0.83 33.55,-0.81 33.81,-0.73 34.02,-0.57 34.18,-0.34 34.25,-0.08 34.24,0.19 34.14,0.44 33.96,0.65 33.73,0.79 33.47,0.85 33.20,0.82 32.95,0.71 32.76,0.52 32.63,0.28 32.58,0.02 32.63,-0.25 32.75,-0.49 32.95,-0.68 33.19,-0.79 33.46,-0.82 33.73,-0.77 33.96,-0.63 34.13,-0.42 34.24,-0.17 34.25,0.10 34.18,0.36 34.03,0.58 33.82,0.75 33.56,0.84 33.42,0.86 29.25,0.89 20.89,0.97 12.54,1.05 4.18,1.15 -0.12,1.19 -0.35,1.13 -0.57,1.02 -0.75,0.86 -0.89,0.66 -0.97,0.44 -1.00,0.20 -0.98,-0.05 -0.89,-0.27 -0.76,-0.47 -0.57,-0.63 -0.36,-0.75 -0.13,-0.81 Z" fill="#788492" stroke="#788492" stroke-width="2.11" stroke-dasharray="none" stroke-dashoffset="none" stroke-linecap="round" stroke-linejoin="round" pointer-events="stroke"/><g><path d="M 25.16,-5.8484850577603185 L 35.42,0 25.22,5.958181608906348" fill="none" stroke="#788492" stroke-width="4.23" stroke-linecap="round" stroke-linejoin="round" pointer-events="none"/></g></g></g><g id="26d8a673-50b7-43b5-338e-62e8b59e6931_svg" class="tl-centered-g" transform="translate(1142.45, 1096.87) rotate(0.00, 10.00, 14.00)"><ellipse cx="10" cy="14" rx="7.88" ry="11.88" fill="none" stroke="#1d1d1d" stroke-width="4.23" stroke-dasharray="none" stroke-dashoffset="none" pointer-events="none" stroke-linecap="round" stroke-linejoin="round"/></g><g id="9d1e895c-149c-48ab-159d-f8e22b8310b9_svg" class="tl-centered-g" transform="translate(1209.45, 1094.87) rotate(0.00, 10.00, 14.00)"><ellipse cx="10" cy="14" rx="7.88" ry="11.88" fill="none" stroke="#1d1d1d" stroke-width="4.23" stroke-dasharray="none" stroke-dashoffset="none" pointer-events="none" stroke-linecap="round" stroke-linejoin="round"/></g><g id="21eae53e-e5a5-4298-00c1-59cafb34b066_svg" class="tl-centered-g" transform="translate(1162.45, 1109.41) rotate(0.00, 19.50, 0.58)"><defs><mask id="21eae53e-e5a5-4298-00c1-59cafb34b066_clip"><rect x="-100" y="-100" width="239.01" height="201.16" fill="white"/><rect x="19.50" y="0.58" width="0" height="0" rx="2" ry="2" fill="black" opacity="1"/></mask></defs><g pointer-events="none" opacity="1" mask=""><path d="M0,1.16L39.01,0" fill="#1d1d1d" stroke="#1d1d1d" stroke-width="4.23" stroke-dasharray="none" stroke-dashoffset="none" stroke-linecap="round" stroke-linejoin="round" pointer-events="stroke"/><g><path d="M 27.55,-6.166803510536681 L 39.01,0 27.94,6.836529822796647" fill="none" stroke="#1d1d1d" stroke-width="4.23" stroke-linecap="round" stroke-linejoin="round" pointer-events="none"/></g></g></g><g id="eeb9bf2f-47de-44a3-3c75-71afbaa61239_svg" class="tl-centered-g" transform="translate(1109.04, 1111.10) rotate(0.00, 12.71, 0.50)"><defs><mask id="eeb9bf2f-47de-44a3-3c75-71afbaa61239_clip"><rect x="-100" y="-100" width="225.41" height="201" fill="white"/><rect x="12.70" y="0.16" width="0" height="0" rx="2" ry="2" fill="black" opacity="1"/></mask></defs><g pointer-events="none" opacity="1" mask=""><path d="M-0.01,-0.65 Q5.84,-0.65 8.77,-0.66 T14.62,-0.69 20.47,-0.73 23.52,-0.73 23.76,-0.65 23.96,-0.51 24.10,-0.30 24.17,-0.07 24.16,0.18 24.07,0.41 23.91,0.60 23.70,0.73 23.46,0.78 23.22,0.76 22.99,0.66 22.81,0.49 22.69,0.28 22.65,0.03 22.69,-0.21 22.80,-0.43 22.98,-0.60 23.20,-0.71 23.44,-0.74 23.68,-0.69 23.90,-0.56 24.06,-0.38 24.15,-0.15 24.17,0.10 24.10,0.34 23.97,0.54 23.77,0.69 23.54,0.77 23.42,0.80 20.49,0.85 14.64,0.95 8.79,1.07 2.94,1.20 -0.10,1.25 -0.33,1.20 -0.53,1.10 -0.70,0.95 -0.84,0.76 -0.92,0.55 -0.95,0.32 -0.92,0.09 -0.85,-0.12 -0.72,-0.31 -0.55,-0.47 -0.35,-0.57 -0.13,-0.63 Z" fill="#1d1d1d" stroke="#1d1d1d" stroke-width="2.11" stroke-dasharray="none" stroke-dashoffset="none" stroke-linecap="round" stroke-linejoin="round" pointer-events="stroke"/><g><path d="M 18.02,-4.145510708275607 L 25.41,0 18.12,4.32448929172439" fill="none" stroke="#1d1d1d" stroke-width="4.23" stroke-linecap="round" stroke-linejoin="round" pointer-events="none"/></g></g></g><text font-size="28px" font-family="Caveat Brush" font-weight="normal" line-height="28px" letter-spacing="-0.03em" text-align="left" dominant-baseline="mathematical" alignment-baseline="mathematical" text-anchor="start" fill="#ff9433" transform="translate(955.83, 1128.69) rotate(0.00, 58.50, 19.00)"><tspan y="14px" x="4">From RepoA
</tspan></text><text font-size="28px" font-family="Caveat Brush" font-weight="normal" line-height="28px" letter-spacing="-0.03em" text-align="left" dominant-baseline="mathematical" alignment-baseline="mathematical" text-anchor="start" fill="#1d1d1d" transform="translate(1147.83, 1130.69) rotate(0.00, 63.00, 19.00)"><tspan y="14px" x="4">New commits
</tspan></text><text font-size="28px" font-family="Caveat Brush" font-weight="normal" line-height="28px" letter-spacing="-0.03em" text-align="left" dominant-baseline="mathematical" alignment-baseline="mathematical" text-anchor="start" fill="#4263eb" transform="translate(743.83, 1059.02) rotate(0.00, 40.00, 19.00)"><tspan y="14px" x="4">myRepo
</tspan></text><text font-size="48px" font-family="Caveat Brush" font-weight="normal" line-height="48px" letter-spacing="-0.03em" text-align="left" dominant-baseline="mathematical" alignment-baseline="mathematical" text-anchor="start" fill="#1d1d1d" transform="translate(718.66, 989.02) rotate(0.00, 54.00, 29.00)"><tspan y="24px" x="4">Result
</tspan></text><text font-size="28px" font-family="Caveat Brush" font-weight="normal" line-height="28px" letter-spacing="-0.03em" text-align="left" dominant-baseline="mathematical" alignment-baseline="mathematical" text-anchor="start" fill="#36b24d" transform="translate(881.21, 1056.88) rotate(0.00, 63.50, 19.00)"><tspan y="14px" x="4">graft commit
</tspan></text></svg>